<?xml version="1.0" encoding="UTF-8"?> <svg xmlns="http://www.w3.org/2000/svg" xmlns:xlink="http://www.w3.org/1999/xlink" xmlns:xodm="http://www.corel.com/coreldraw/odm/2003" xml:space="preserve" width="92.6042mm" height="92.6042mm" version="1.1" style="shape-rendering:geometricPrecision; text-rendering:geometricPrecision; image-rendering:optimizeQuality; fill-rule:evenodd; clip-rule:evenodd" viewBox="0 0 1940.15 1940.15"> <defs> <style type="text/css"> .fil0 {fill:#FCF184} .fil1 {fill:#231F20;fill-rule:nonzero} </style> </defs> <g id="Слой_x0020_1"> <metadata id="CorelCorpID_0Corel-Layer"></metadata> <circle class="fil0" cx="970.07" cy="970.07" r="970.07"></circle> <g id="_2590224030512"> <path class="fil1" d="M1595.33 772.77c0,-241.7 -200.28,-437.61 -447.36,-437.61 -212.51,0 -389.34,145.34 -434.95,339.68 4.53,-1.02 8.73,-2.89 13.3,-3.76 -0.48,2.39 -0.66,4.87 -1.12,7.29 25.8,-4.56 52.24,-7.29 79.35,-7.29 247.07,0 447.38,195.91 447.38,437.61 0,26.55 -2.83,52.4 -7.47,77.63 2.46,-0.43 5.01,-0.62 7.47,-1.1 -0.91,4.49 -2.8,8.58 -3.85,13.03 198.64,-44.63 347.23,-217.61 347.23,-425.48z"></path> <path class="fil1" d="M1244.47 1186.31c-0.45,2.41 -0.64,4.92 -1.12,7.31 -28.1,5.39 -57.08,8.38 -86.8,8.38l-447.38 0 0 -420.69 0.23 -12.73c-0.27,-6.36 -0.23,2.23 -0.23,-4.19 0,-29.08 3.05,-57.45 8.58,-84.92 2.43,-0.48 4.98,-0.66 7.47,-1.09 0.43,-2.41 0.61,-4.92 1.09,-7.31 -4.58,0.88 -8.76,2.73 -13.3,3.76 -198.67,44.63 -347.26,217.59 -347.26,425.48 0,6.42 1.66,12.39 1.93,18.74l-1.93 -1.82 0 420.72 447.37 0c212.51,0 389.34,-145.37 434.95,-339.7 1.05,-4.44 2.94,-8.54 3.85,-13 -2.46,0.46 -5.01,0.64 -7.47,1.07z"></path> </g> </g> </svg> 