<?xml version="1.0" encoding="UTF-8"?> <svg xmlns="http://www.w3.org/2000/svg" xmlns:xlink="http://www.w3.org/1999/xlink" xmlns:xodm="http://www.corel.com/coreldraw/odm/2003" xml:space="preserve" width="94.3706mm" height="94.3705mm" version="1.1" style="shape-rendering:geometricPrecision; text-rendering:geometricPrecision; image-rendering:optimizeQuality; fill-rule:evenodd; clip-rule:evenodd" viewBox="0 0 2333.41 2333.4"> <defs> <style type="text/css"> .fil0 {fill:#FCF184} .fil1 {fill:#231F20;fill-rule:nonzero} </style> </defs> <g id="Слой_x0020_1"> <metadata id="CorelCorpID_0Corel-Layer"></metadata> <path class="fil0" d="M620.52 0l1092.2 0c342.49,0 620.67,278 620.68,620.53l0.01 1092.18c0.01,342.59 -278.11,620.69 -620.69,620.69l-1092.16 -0c-342.53,0 -620.55,-278.18 -620.55,-620.68l0 -1092.19c0,-342.49 278.03,-620.53 620.52,-620.53z"></path> <g id="_2626003668288"> <path class="fil1" d="M1892.26 973.41c0,-285.25 -236.37,-516.46 -527.96,-516.46 -250.8,0 -459.49,171.53 -513.32,400.88 5.35,-1.21 10.3,-3.41 15.7,-4.43 -0.56,2.82 -0.78,5.75 -1.32,8.6 30.45,-5.38 61.65,-8.6 93.65,-8.6 291.59,0 527.99,231.21 527.99,516.46 0,31.34 -3.34,61.84 -8.81,91.61 2.9,-0.51 5.91,-0.73 8.81,-1.29 -1.08,5.29 -3.31,10.13 -4.54,15.37 234.43,-52.67 409.8,-256.82 409.8,-502.14z"></path> <path class="fil1" d="M1478.18 1461.46c-0.53,2.85 -0.75,5.81 -1.32,8.63 -33.16,6.37 -67.37,9.89 -102.44,9.89l-527.99 0 0 -496.5 0.27 -15.02c-0.32,-7.5 -0.27,2.63 -0.27,-4.94 0,-34.32 3.6,-67.8 10.13,-100.22 2.87,-0.56 5.88,-0.78 8.81,-1.29 0.51,-2.85 0.72,-5.81 1.29,-8.62 -5.4,1.04 -10.34,3.22 -15.69,4.43 -234.46,52.67 -409.83,256.79 -409.83,502.14 0,7.58 1.96,14.62 2.28,22.11l-2.28 -2.15 0 496.53 527.98 0c250.8,0 459.5,-171.56 513.32,-400.91 1.23,-5.24 3.46,-10.08 4.54,-15.35 -2.9,0.54 -5.91,0.75 -8.81,1.26z"></path> </g> </g> </svg> 